# xmcd
#
# Track frame offsets:
#	150
#	14377
#	29015
#	45587
#	65722
#	77372
#	96650
#	111975
#	130872
#	147072
#	164512
#	187555
#	218007
#	238425
#	257272
#
# Disc length: 3673 seconds
#
# Revision: 1
# Processed by: cddbd v1.5.2PL0 Copyright (c) Steve Scherf et al.
# Submitted via: EZCDAudioConverter 6.0.8.1
#
DISCID=ce0e570f
DTITLE=Charles Dumont - Le Retour De La Mélodie
DYEAR=1997
DGENRE=Blues
TTITLE0=Le Retour De La Mélodie
TTITLE1=Vous
TTITLE2=Elle Et Lui
TTITLE3=L'Amour Ou Elle Veut
TTITLE4=Ringard
TTITLE5=Elle N'Est Pas Faite Pour Moi
TTITLE6=Ma P'tite Indienne
TTITLE7=Cuba Libre
TTITLE8=Prends La Jeunesse
TTITLE9=L'Enfance Chevillée Au Coeur
TTITLE10=Y'A Que Le Soleil
TTITLE11=Ta Cigarette Apres L'Amour
TTITLE12=Walk With Me
TTITLE13=No Regrets
TTITLE14=No More Blue
EXTD=
EXTT0=
EXTT1=
EXTT2=
EXTT3=
EXTT4=
EXTT5=
EXTT6=
EXTT7=
EXTT8=
EXTT9=
EXTT10=
EXTT11=
EXTT12=
EXTT13=
EXTT14=
PLAYORDER=
